<?xml version="1.0" encoding="UTF-8" standalone="no"?>
<!-- Created with Inkscape (http://www.inkscape.org/) -->

<svg
   xmlns:dc="http://purl.org/dc/elements/1.1/"
   xmlns:cc="http://creativecommons.org/ns#"
   xmlns:rdf="http://www.w3.org/1999/02/22-rdf-syntax-ns#"
   xmlns:svg="http://www.w3.org/2000/svg"
   xmlns="http://www.w3.org/2000/svg"
   xmlns:sodipodi="http://sodipodi.sourceforge.net/DTD/sodipodi-0.dtd"
   xmlns:inkscape="http://www.inkscape.org/namespaces/inkscape"
   width="210mm"
   height="297mm"
   viewBox="0 0 210 297"
   version="1.1"
   id="svg8"
   inkscape:version="0.92.3 (2405546, 2018-03-11)"
   sodipodi:docname="Moda_a_la_luz_del_laser.svg">
  <defs
     id="defs2" />
  <sodipodi:namedview
     id="base"
     pagecolor="#ffffff"
     bordercolor="#666666"
     borderopacity="1.0"
     inkscape:pageopacity="0.0"
     inkscape:pageshadow="2"
     inkscape:zoom="0.98994949"
     inkscape:cx="176.60141"
     inkscape:cy="918.59643"
     inkscape:document-units="mm"
     inkscape:current-layer="g132"
     showgrid="false"
     inkscape:snap-text-baseline="true"
     showguides="true"
     inkscape:guide-bbox="true"
     inkscape:window-width="1366"
     inkscape:window-height="705"
     inkscape:window-x="-8"
     inkscape:window-y="-8"
     inkscape:window-maximized="1" />
  <metadata
     id="metadata5">
    <rdf:RDF>
      <cc:Work
         rdf:about="">
        <dc:format>image/svg+xml</dc:format>
        <dc:type
           rdf:resource="http://purl.org/dc/dcmitype/StillImage" />
        <dc:title />
      </cc:Work>
    </rdf:RDF>
  </metadata>
  <g
     inkscape:label="Capa 1"
     inkscape:groupmode="layer"
     id="layer1">
    <g
       id="g132">
      <g
         id="g142"
         transform="translate(-39.823159,-16.303441)">
        <flowRoot
           xml:space="preserve"
           id="flowRoot10"
           style="font-style:normal;font-weight:normal;font-size:40px;line-height:1.25;font-family:sans-serif;letter-spacing:0px;word-spacing:0px;fill:#000000;fill-opacity:1;stroke:none"
           transform="matrix(0.26458333,0,0,0.26458333,-4.7625002,0)"><flowRegion
             id="flowRegion12"><rect
               id="rect14"
               width="582.85712"
               height="377.14285"
               x="102.85714"
               y="125.37683" /></flowRegion><flowPara
             id="flowPara16"
             style="font-style:normal;font-variant:normal;font-weight:normal;font-stretch:normal;font-size:74.66666412px;line-height:1;font-family:'Bodoni Bd BT';-inkscape-font-specification:'Bodoni Bd BT';text-align:center;text-anchor:middle"><flowSpan
   style="letter-spacing:-0.82999998px"
   id="flowSpan64">  </flowSpan>MODA</flowPara><flowPara
             style="font-style:normal;font-variant:normal;font-weight:normal;font-stretch:normal;font-size:58.66666794px;line-height:1;font-family:'Bodoni Bd BT';-inkscape-font-specification:'Bodoni Bd BT';text-align:center;text-anchor:middle"
             id="flowPara18">a la luz del láser</flowPara></flowRoot>        <path
           style="fill:#3e3e3e;stroke-width:0.12110545"
           d="m 74.262543,31.297399 c -1.752488,-0.06504 -10.196419,-0.160986 -18.764292,-0.213171 -14.659823,-0.0893 -15.585372,-0.108186 -15.703534,-0.320435 -0.223077,-0.400724 0.04784,-0.671569 0.715965,-0.715834 0.700875,-0.04639 0.797434,-0.212677 0.473241,-0.81495 -0.337206,-0.626403 -0.326124,-1.852041 0.02215,-2.445516 0.309349,-0.527201 1.119967,-1.01895 1.673265,-1.015062 0.592312,0.0043 1.329469,0.431309 1.594729,0.92408 0.571284,1.061215 0.02215,2.166258 -1.076465,2.166258 -0.473658,0 -1.117582,-0.333322 -1.054945,-0.546092 0.08719,-0.296255 0.415634,-0.426284 0.65288,-0.25848 0.543521,0.384435 1.09755,0.0029 1.039596,-0.715934 -0.0074,-0.092 -0.148979,-0.309492 -0.314581,-0.483308 -0.442923,-0.464909 -1.273169,-0.446719 -1.752488,0.03838 -0.440733,0.44604 -0.563489,1.214088 -0.289848,1.813423 0.723418,1.584356 3.493823,0.881823 6.534576,-1.657076 5.088736,-4.248853 9.453221,-6.43245 14.278394,-7.143603 1.544444,-0.227616 4.590365,-0.259937 5.999997,-0.06368 1.562929,0.217645 3.479315,0.704855 5.049084,1.28367 1.791642,0.660618 2.569385,1.035847 5.424088,2.616893 4.845987,2.68386 9.913562,4.72011 10.987314,4.414906 0.346036,-0.09836 0.302981,-0.361219 -0.07876,-0.480806 -2.834765,-0.888077 -5.213222,-2.081916 -8.27506,-4.153553 -4.284441,-2.898875 -7.757312,-4.454876 -9.951763,-4.458814 -0.297289,0 -0.54053,-0.04753 -0.54053,-0.104498 0,-0.05689 0.371261,-0.244556 0.825033,-0.416935 0.7235,-0.27484 1.021123,-0.312423 2.418203,-0.305347 2.37402,0.01201 4.613804,0.630306 7.459102,2.059065 0.625521,0.314095 1.210576,0.571088 1.300149,0.571088 0.08958,0 0.390819,-0.399102 0.669427,-0.886877 1.157373,-2.026271 2.484779,-3.052598 4.113267,-3.180326 l 0.910377,-0.07141 -0.398291,0.356023 c -2.089909,1.868059 -2.803943,3.945472 -2.020102,5.877252 0.560826,1.382207 1.782427,2.535304 3.291737,3.107171 0.808068,0.306154 2.435723,0.507138 2.71861,0.335659 0.482619,-0.292523 0.879585,-1.443626 0.541811,-1.57114 -0.07352,-0.0278 -0.39193,0.02545 -0.707597,0.118143 -0.697094,0.204794 -0.811173,0.206774 -1.551865,0.02687 -1.159127,-0.281544 -1.812398,-1.322131 -1.812398,-2.886988 0,-1.084279 0.238691,-1.760644 0.828201,-2.346849 0.483389,-0.480685 0.976447,-0.613323 1.919838,-0.516437 1.853022,0.190305 2.915218,2.055155 2.604298,4.572318 -0.128626,1.041365 -0.105565,1.319708 0.10937,1.319708 0.156597,0 0.509366,-0.849609 0.794973,-1.914526 0.667307,-2.488172 -0.196772,-4.624238 -2.336002,-5.774826 -0.469227,-0.252361 -0.853129,-0.512235 -0.853129,-0.577471 0,-0.397486 1.215126,-0.197946 2.242428,0.368224 0.358241,0.197439 0.925176,0.668295 1.259846,1.046347 0.334663,0.378066 0.676306,0.65791 0.759208,0.621872 0.0829,-0.03602 0.265222,-0.556357 0.405158,-1.156292 0.31147,-1.33534 0.389204,-1.502559 0.591774,-1.273141 0.10678,0.120937 0.14447,0.649404 0.1378,1.932151 -0.0107,2.051982 -0.21442,3.092611 -0.956659,4.886464 -0.572085,1.382607 -0.469202,1.667618 0.27515,0.762343 1.148219,-1.396423 2.111399,-4.331665 2.114909,-6.445066 6.3e-4,-0.575719 0.0444,-1.122798 0.0964,-1.215731 0.0627,-0.111846 0.28326,-0.155404 0.6526,-0.128879 l 0.557981,0.04003 0.0766,1.417702 c 0.122387,2.264937 0.675027,4.09312 1.762437,5.83022 0.90697,1.448894 1.3134,1.362758 0.6817,-0.144489 -0.52211,-1.24578 -0.82746,-2.391701 -0.98829,-3.708921 -0.11802,-0.966552 -0.0812,-2.509508 0.0741,-3.104533 0.0682,-0.261503 0.25729,-0.299064 0.32424,-0.0644 0.0252,0.08861 0.17895,0.668574 0.34148,1.288823 0.16252,0.620249 0.35324,1.127715 0.4238,1.127715 0.0706,0 0.41735,-0.312236 0.77062,-0.693869 0.75343,-0.813907 1.59124,-1.328071 2.46064,-1.510092 0.61136,-0.127992 1.12631,-0.06326 1.02173,0.128321 -0.029,0.05325 -0.437,0.311837 -0.90656,0.574669 -1.02505,0.573754 -1.8193,1.43304 -2.22101,2.402844 -0.50983,1.23082 -0.38006,2.997633 0.34623,4.713855 0.0871,0.205787 0.25406,0.39502 0.37107,0.420537 0.19855,0.04331 0.20618,-0.01236 0.11444,-0.836142 -0.22108,-1.985045 0.046,-3.102947 0.97698,-4.089197 1.14251,-1.210328 2.96722,-1.156849 3.82176,0.112004 0.59268,0.880043 0.79855,2.294428 0.4654,3.197444 -0.41219,1.117288 -1.653,1.726115 -3.22366,1.581783 -1.08165,-0.09939 -1.11808,-0.05661 -0.71467,0.838931 0.3107,0.689752 0.61534,0.804514 1.68741,0.635637 1.20769,-0.190248 1.66839,-0.346674 2.53738,-0.861517 0.95681,-0.566863 1.71668,-1.410561 2.17598,-2.416038 0.7831,-1.714328 0.31317,-3.731622 -1.24633,-5.350029 -0.41463,-0.430301 -0.79768,-0.782364 -0.85123,-0.782364 -0.0535,0 -0.0973,-0.06633 -0.0973,-0.147392 0,-0.104991 0.23733,-0.122531 0.82503,-0.06104 1.5852,0.166025 2.78915,1.087096 3.90616,2.988391 0.35106,0.597548 0.71642,1.086453 0.81192,1.086453 0.0955,0 0.62696,-0.23119 1.18106,-0.51375 2.80406,-1.429974 5.17999,-2.094853 7.55746,-2.114909 1.40852,-0.01187 1.6888,0.02316 2.41821,0.301922 0.45377,0.173452 0.82503,0.361934 0.82503,0.418865 0,0.05697 -0.25154,0.103519 -0.55897,0.103519 -2.12005,0 -5.7081,1.601024 -9.74321,4.347533 -2.99484,2.038444 -5.6781,3.434081 -7.764,4.038284 -1.02211,0.296054 -1.10282,0.346666 -0.92965,0.582974 0.19576,0.267171 0.62179,0.225943 2.08707,-0.201935 2.44752,-0.714733 6.08165,-2.373831 9.71553,-4.435498 4.91824,-2.790324 8.58844,-3.791405 13.38964,-3.652134 2.39595,0.06948 3.71431,0.278865 5.83457,0.926532 3.19624,0.976365 6.86512,3.031198 9.74147,5.455936 2.44655,2.062424 3.93636,2.991043 5.35529,3.338017 0.66024,0.161443 0.90221,0.169563 1.31126,0.04396 0.71573,-0.219733 1.14845,-0.749478 1.14845,-1.405937 0,-1.018515 -0.4794,-1.56257 -1.3769,-1.56257 -0.90988,0 -1.47714,1.022781 -0.83254,1.501136 0.2474,0.183586 0.3535,0.193922 0.66811,0.06504 0.69644,-0.285211 1.04246,0.186046 0.40901,0.557043 -0.18466,0.10815 -0.54824,0.196631 -0.80796,0.196631 -0.38531,0 -0.54344,-0.08065 -0.85914,-0.438192 -0.44827,-0.507688 -0.49584,-0.946838 -0.17578,-1.622717 0.4515,-0.953457 1.63152,-1.271941 2.66046,-0.71805 0.90203,0.485581 1.21652,1.960664 0.67067,3.145875 -0.14191,0.308134 -0.22485,0.597798 -0.18432,0.643693 0.0405,0.04589 0.36416,0.112768 0.71917,0.14862 l 0.6455,0.06512 v 0.451087 0.451093 l -14.85062,0.07843 c -8.16785,0.0431 -17.23185,0.151065 -20.14224,0.239838 -4.04761,0.123461 -5.98716,0.127121 -8.25034,0.01558 -4.31576,-0.212706 -4.53177,-0.23347 -4.67088,-0.448921 -0.0673,-0.10419 -0.60572,-0.343264 -1.19655,-0.531289 -3.0865,-0.982198 -5.26671,-2.325471 -7.20444,-4.438779 -1.16345,-1.268889 -1.81362,-2.24837 -2.399177,-3.614402 -0.562101,-1.311324 -0.572351,-1.33098 -0.723581,-1.388075 -0.0745,-0.02816 -0.30461,0.376673 -0.52365,0.921028 -1.70658,4.241234 -5.171601,7.150236 -10.238596,8.595635 -0.50799,0.144918 -0.989777,0.361663 -1.07064,0.481664 -0.123192,0.182829 -0.455034,0.232283 -2.048357,0.305175 -3.784422,0.173158 -7.996786,0.208081 -11.118988,0.0922 z m 7.515359,-1.15437 c 0.04127,-0.07561 0.04828,-0.167718 0.01559,-0.204707 -0.03269,-0.03702 -0.741903,-0.17461 -1.576125,-0.305847 -3.002097,-0.472308 -4.378117,-0.915274 -7.967054,-2.564773 -1.106702,-0.508654 -2.196162,-0.958639 -2.421,-0.99996 l -0.408811,-0.07513 0.07421,0.715083 c 0.121577,1.171581 -0.005,1.591568 -0.717107,2.378943 -0.356953,0.394677 -0.588153,0.746326 -0.531972,0.809067 0.22694,0.253448 13.397522,0.494165 13.532207,0.247329 z m 43.750608,-0.005 c 2.53485,-0.08015 4.65476,-0.193815 4.7109,-0.252632 0.0577,-0.06047 -0.17161,-0.404027 -0.52751,-0.790384 -0.52876,-0.574026 -0.64101,-0.776318 -0.70101,-1.263428 -0.0393,-0.318984 -0.0196,-0.782579 0.0439,-1.030208 0.16821,-0.656938 0.14529,-0.774144 -0.15139,-0.774144 -0.35358,0 -1.14961,0.32012 -3.1735,1.276186 -2.80605,1.325569 -4.81698,1.953373 -7.48331,2.336242 -1.20308,0.172758 -1.6426,0.318991 -1.53752,0.511563 0.094,0.172222 3.09682,0.16774 8.81947,-0.01322 z m -41.033456,-0.06476 c 0.256709,-0.111553 0.222509,-0.404649 -0.05901,-0.505845 -0.285494,-0.102632 -0.500954,0.100403 -0.405511,0.382091 0.07375,0.217673 0.182067,0.246528 0.464563,0.123754 z M 47.605421,29.668192 c 0.504784,-0.445962 4.714174,-3.66402 5.002224,-3.824163 0.153409,-0.0853 0.266201,-0.05932 0.399888,0.09207 0.172393,0.195258 0.143766,0.261688 -0.386136,0.89624 -0.873502,1.046032 -1.028924,1.937627 -0.476403,2.733135 0.223291,0.321522 0.258223,0.328262 1.699095,0.328262 1.274968,0 1.471109,-0.02759 1.471109,-0.206995 0,-0.113833 -0.124366,-0.317783 -0.276361,-0.453195 -0.765286,-0.681769 -0.999313,-2.013813 -0.534926,-3.044729 0.326004,-0.723739 1.30622,-1.682528 2.374506,-2.322605 1.202245,-0.720337 3.315675,-1.496576 4.809465,-1.766484 1.544614,-0.279093 4.429748,-0.295568 5.264904,-0.03002 0.327626,0.104162 1.17979,0.314845 1.893672,0.46819 1.705994,0.366452 3.302996,0.956738 6.212673,2.296309 3.631052,1.671671 4.427438,2.016036 6.004989,2.596681 2.114371,0.778204 3.63824,1.17579 4.845963,1.264363 0.978189,0.07172 1.061085,0.05954 1.024197,-0.150357 -0.02909,-0.165467 -0.463421,-0.395535 -1.576434,-0.835071 -2.255277,-0.890586 -3.812785,-1.645282 -7.055466,-3.418728 -1.596011,-0.872874 -3.469361,-1.821785 -4.162972,-2.108698 -3.451786,-1.427737 -7.371467,-2.057106 -10.630765,-1.706951 -5.290798,0.568436 -9.753836,2.691007 -15.19201,7.225164 -0.500719,0.417478 -1.307261,0.998787 -1.792316,1.291804 -1.197695,0.723489 -1.186493,1.000516 0.04127,1.020079 0.531568,0.0085 0.705956,-0.04932 1.039842,-0.344265 z m 3.593973,0.241625 c 0.110747,-0.0795 0.131176,-0.278729 0.07578,-0.739093 -0.159985,-1.329786 -0.19936,-1.341451 -1.387499,-0.411216 -0.900311,0.704884 -1.081149,0.957623 -0.819486,1.145263 0.202573,0.145275 1.930188,0.149378 2.131208,0.005 z m 13.836223,0.03459 c 0.304938,-0.132531 0.20044,-0.420201 -0.246743,-0.679302 -0.571019,-0.330842 -1.225495,-1.068948 -1.534586,-1.730704 -0.195876,-0.419372 -0.252455,-0.757118 -0.252455,-1.507111 0,-1.091263 0.216571,-1.697524 0.922526,-2.582514 0.622466,-0.78032 0.489436,-0.945358 -0.672696,-0.834427 -2.259544,0.215686 -4.184298,0.819246 -6.022117,1.888408 -3.293264,1.915855 -3.122563,4.476455 0.329109,4.936861 0.563628,0.07518 0.615991,0.05597 1.044967,-0.382933 0.485718,-0.497003 0.667836,-1.053631 0.476883,-1.457693 -0.138049,-0.292159 -0.684328,-0.536651 -1.199071,-0.536651 -0.638648,0 -0.834379,-0.518009 -0.375622,-0.994041 0.816235,-0.846971 2.350991,-1.155798 3.007279,-0.605138 1.154956,0.969117 1.228215,2.525232 0.170727,3.627345 -0.338135,0.352392 -0.484785,0.590294 -0.413609,0.670904 0.158522,0.179549 4.399613,0.345974 4.765408,0.186996 z m 49.454493,-0.104355 c 0,-0.20638 -0.21372,-0.324452 -0.42673,-0.235728 -0.2588,0.107786 -0.1532,0.418314 0.14224,0.418314 0.16959,0 0.28449,-0.07374 0.28449,-0.182586 z m 22.38975,0.05447 c 1.01796,0 1.39402,-0.04303 1.39402,-0.157455 0,-0.08617 -0.23428,-0.426062 -0.52062,-0.755303 -0.61971,-0.712561 -0.80556,-1.389612 -0.60873,-2.217485 0.16799,-0.706571 0.82489,-1.443726 1.39276,-1.562891 1.07247,-0.225058 2.63844,0.613237 2.63844,1.412419 0,0.367459 -0.0217,0.382734 -0.65283,0.459542 -0.66392,0.08081 -0.92254,0.230468 -1.11988,0.648075 -0.14341,0.303516 0.10086,0.965958 0.51588,1.399025 0.27094,0.282717 0.39754,0.318341 1.03287,0.290708 1.54671,-0.06726 2.67061,-0.914431 2.67061,-2.013006 0,-0.700052 -0.47115,-1.541691 -1.19061,-2.12686 -0.77029,-0.626489 -2.71224,-1.631129 -3.88594,-2.010304 -0.9915,-0.32032 -3.09916,-0.705698 -3.88861,-0.711016 -0.57053,-0.0036 -0.57292,0.293631 -0.008,1.005834 0.60564,0.763681 0.89493,1.634275 0.89418,2.690951 -0.001,1.281325 -0.42345,2.081151 -1.49541,2.8305 -1.04848,0.732931 -0.90169,0.977837 0.52757,0.880222 0.50071,-0.03417 1.53769,-0.06254 2.30441,-0.06297 z m 12.57924,-0.03295 c 0.10468,-0.08861 0.15287,-0.223784 0.10709,-0.300371 -0.14243,-0.23833 -1.82733,-1.471767 -2.01048,-1.471767 -0.19415,0 -0.27782,0.303238 -0.32009,1.159945 l -0.0286,0.579972 0.56899,0.07642 c 0.99835,0.134075 1.48767,0.121224 1.6831,-0.04417 z m 3.2009,0.08286 c 0.35935,-0.156176 0.16178,-0.417771 -0.75882,-1.004677 -0.51636,-0.329198 -1.42532,-1.000988 -2.01992,-1.492895 -2.75097,-2.275845 -4.66697,-3.569828 -6.8666,-4.637383 -4.59039,-2.227891 -9.30948,-2.931181 -13.82408,-2.060215 -3.00796,0.580294 -5.21806,1.447965 -8.89677,3.49277 -2.91576,1.620716 -4.82774,2.554252 -6.94167,3.38933 -1.13396,0.447941 -1.65007,0.712232 -1.65007,0.844942 0,0.157261 0.17041,0.189347 0.91817,0.172922 1.80103,-0.0396 4.82828,-1.084558 10.00643,-3.454116 3.74683,-1.714564 5.27819,-2.293493 7.02479,-2.655741 0.70535,-0.146283 1.46168,-0.330792 1.68074,-0.410002 1.06714,-0.385886 4.29545,-0.329462 6.196,0.108287 2.64021,0.608112 5.33717,2.113444 6.18663,3.453051 0.75256,1.186848 0.71794,2.354719 -0.0996,3.359224 -0.24642,0.302759 -0.44803,0.618169 -0.44803,0.700917 0,0.108865 0.41531,0.140493 1.50351,0.114462 l 1.50349,-0.03595 0.26037,-0.437935 c 0.46565,-0.783214 0.25249,-1.670627 -0.63488,-2.643111 -0.38445,-0.421295 -0.44011,-0.544134 -0.34131,-0.753216 0.0722,-0.152773 0.1976,-0.226272 0.32281,-0.18919 0.11262,0.03338 1.31679,0.923279 2.67594,1.977617 1.35915,1.054317 2.58126,1.988597 2.7158,2.076163 0.25604,0.166632 1.17781,0.219174 1.48708,0.08476 z M 82.350063,29.363875 c 0.112551,-0.206231 -0.0812,-0.310893 -1.544015,-0.834099 -0.719701,-0.257422 -2.870479,-1.179822 -4.779513,-2.049759 -5.17521,-2.35835 -6.964232,-2.985496 -8.898933,-3.119507 -1.036081,-0.07176 -1.141659,-0.05539 -1.724043,0.267314 -1.329142,0.736483 -1.878633,2.520451 -1.159336,3.763772 0.231496,0.400124 1.104663,1.042616 1.650261,1.214281 0.575266,0.181006 1.428439,0.157419 1.870365,-0.05175 0.496857,-0.235107 0.750916,-0.664307 0.750916,-1.26856 0,-0.693726 -0.460178,-0.999359 -1.505662,-1.000016 -0.728657,0 -0.769565,-0.01673 -0.839788,-0.333587 -0.126152,-0.569308 0.123791,-0.70414 1.328674,-0.71672 1.34716,-0.01408 2.206745,0.262725 5.441828,1.752396 3.078132,1.417409 4.690666,1.920308 7.443305,2.321304 1.505574,0.219325 1.87065,0.229517 1.965941,0.05489 z m 35.302437,0.0057 c 2.89658,-0.36034 4.98037,-1.001775 8.2743,-2.547033 2.80964,-1.318057 3.72455,-1.601832 5.11303,-1.5859 1.2088,0.01387 1.34215,0.08232 1.28913,0.661698 -0.0266,0.29123 -0.0842,0.325324 -0.59846,0.354601 -1.34333,0.07648 -1.76387,0.338475 -1.76387,1.098868 0,2.031711 3.60909,1.748801 4.45032,-0.348861 0.38494,-0.959883 0.20454,-1.924111 -0.51179,-2.735409 -0.96719,-1.095373 -2.45125,-1.207269 -5.0765,-0.382762 -1.88852,0.593124 -2.87635,0.996871 -6.65719,2.720899 -1.75249,0.799125 -3.77524,1.667125 -4.49502,1.928899 -1.37449,0.499869 -1.55321,0.604003 -1.42859,0.832355 0.0934,0.171136 0.0509,0.171057 1.40464,0.0029 z M 60.590692,28.163542 c 0.102737,-0.177596 0.186813,-0.562732 0.186813,-0.855848 0,-0.434261 -0.07164,-0.614102 -0.386912,-0.971155 -0.311634,-0.352949 -0.475892,-0.438199 -0.844174,-0.438199 -0.861334,0 -1.0975,0.344787 -0.482784,0.704806 0.487972,0.285797 0.689692,0.687994 0.689692,1.375244 0,0.846643 0.403107,0.935781 0.837365,0.185152 z m 78.143178,-0.200819 c 0.0547,-0.60832 0.11605,-0.739193 0.54054,-1.153254 0.68861,-0.671691 0.60933,-0.911129 -0.30173,-0.911129 -1.23708,0 -1.70575,1.777427 -0.70402,2.669936 0.29055,0.258887 0.40033,0.115999 0.46521,-0.605553 z M 87.117389,25.777385 c 0.03635,-0.06647 -0.215295,-0.47804 -0.559135,-0.91446 -0.343827,-0.436419 -0.766945,-1.121447 -0.940254,-1.522278 -0.273672,-0.632951 -0.314966,-0.881338 -0.314019,-1.88873 0,-0.978359 0.0515,-1.297536 0.322969,-2.038923 0.177037,-0.483437 0.289255,-0.915925 0.249394,-0.961083 -0.238211,-0.269787 -1.506874,1.314911 -2.11095,2.636785 -0.462847,1.012839 -0.376556,0.990639 -1.462147,0.376086 -2.575229,-1.457857 -6.561145,-2.783233 -6.364883,-2.116403 0.05232,0.177754 -0.09761,0.0859 2.136427,1.308822 0.970118,0.531047 2.506388,1.471038 3.413931,2.088857 1.666475,1.134463 5.12986,3.1523 5.410588,3.1523 0.08364,0 0.181784,-0.05439 0.218079,-0.120973 z m 26.405441,-0.845542 c 0.81366,-0.453488 2.34993,-1.412284 3.41394,-2.13067 1.06401,-0.7184 2.62588,-1.680105 3.47083,-2.137146 2.09573,-1.133562 2.08094,-1.124506 2.13408,-1.306427 0.19541,-0.66901 -3.8878,0.700066 -6.4814,2.173169 l -0.8765,0.497825 -0.40334,-0.8683 c -0.47014,-1.012117 -1.30105,-2.250064 -1.71783,-2.559341 -0.48122,-0.35711 -0.55354,-0.0639 -0.19694,0.798525 0.2758,0.666965 0.31577,0.918876 0.31577,1.989983 0,1.122126 -0.0311,1.297357 -0.36632,2.062117 -0.20148,0.45967 -0.59835,1.12332 -0.88193,1.474782 -1.00871,1.250091 -0.64579,1.251341 1.58964,0.0057 z M 92.237428,23.782584 c 0.785298,-0.371605 0.984741,-1.310266 0.517047,-2.433393 -0.536699,-1.288802 -2.198958,-1.633174 -2.854033,-0.59128 -0.341404,0.543005 -0.412775,1.712163 -0.140049,2.294129 0.386212,0.824128 1.552433,1.168078 2.477035,0.730544 z m 3.701956,-0.860409 c 0.676534,-1.584427 1.136658,-4.176762 0.741361,-4.176762 -0.06261,0 -0.230013,0.275484 -0.372044,0.612187 -0.14203,0.33671 -0.307147,0.612193 -0.366919,0.612193 -0.05976,0 -0.192657,-0.18849 -0.295288,-0.418864 -0.232884,-0.52272 -0.724926,-1.127716 -0.917168,-1.127716 -0.09482,0 -0.01243,0.313037 0.238009,0.905046 0.56354,1.331766 0.618333,2.444729 0.214091,4.346903 -0.04494,0.211456 -0.01098,0.289987 0.125489,0.289987 0.121544,0 0.343233,-0.365587 0.632469,-1.042974 z m 7.396436,0.946309 c -0.001,-0.05318 -0.078,-0.582767 -0.17077,-1.176906 -0.20941,-1.341158 -0.0926,-2.338215 0.3984,-3.400294 0.39201,-0.847986 0.3965,-0.868071 0.19405,-0.868071 -0.19727,0 -0.68699,0.60115 -0.92535,1.135935 -0.22206,0.498197 -0.40415,0.482279 -0.55459,-0.04853 -0.15463,-0.545506 -0.43238,-0.881616 -0.55501,-0.671619 -0.34774,0.595454 0.94314,5.126116 1.46053,5.126116 0.0852,0 0.1539,-0.04346 0.15274,-0.09667 z m 4.69992,-0.07887 c 0.61007,-0.292438 0.80681,-0.648346 0.851,-1.539447 0.0691,-1.393815 -0.3968,-2.016994 -1.51077,-2.020704 -0.85469,-0.0029 -1.30962,0.326861 -1.61634,1.171474 -0.44299,1.219805 -0.28872,2.006866 0.4663,2.379021 0.46125,0.227365 1.34581,0.232083 1.80981,0.0096 z m -13.975431,7.129529 c -0.09588,-0.175702 0.152217,-0.509882 0.378551,-0.509882 0.09729,0 0.590317,-0.227923 1.095581,-0.506502 1.723181,-0.950062 2.863041,-2.292949 3.398961,-4.004375 0.15428,-0.492693 0.32819,-0.837737 0.42225,-0.837737 0.0944,0 0.261431,0.333872 0.407551,0.814478 0.324367,1.066804 0.963297,2.100121 1.747267,2.825769 0.60716,0.561982 2.49847,1.708367 2.8185,1.708367 0.20504,0 0.32923,0.38793 0.16174,0.505165 -0.0727,0.05089 -0.40021,0.04467 -0.72783,-0.0138 -0.32761,-0.0584 -1.95269,-0.141251 -3.61131,-0.184015 -2.425058,-0.06254 -3.286858,-0.03717 -4.400565,0.129629 -1.639614,0.245521 -1.597456,0.243712 -1.690696,0.07286 z m 7.542191,-0.887412 c 0.27179,-0.01737 0.13775,-0.243798 -0.66482,-1.122827 -0.44388,-0.486181 -0.93524,-1.130453 -1.091897,-1.431718 -0.16839,-0.323838 -0.36902,-0.547744 -0.490791,-0.547744 -0.12179,0 -0.32234,0.223864 -0.4907,0.547744 -0.29744,0.572188 -0.88803,1.317449 -1.54715,1.952336 -0.610276,0.587842 -0.37336,0.661169 2.04946,0.634423 1.151508,-0.01279 2.157668,-0.02723 2.235898,-0.03216 z m -2.395308,-0.863869 c -0.0439,-0.04975 -0.0798,-0.200741 -0.0798,-0.335623 0,-0.180614 0.0675,-0.234407 0.25605,-0.204072 0.167381,0.02695 0.256041,0.129836 0.256041,0.297184 0,0.255649 -0.281331,0.413468 -0.432291,0.242511 z"
           id="path14"
           inkscape:connector-curvature="0"
           sodipodi:nodetypes="ccccsccccccsccccccccssccsccccccccccssccsccscccsscccccccsccccccssccccccccccccccccssccssccssccccccccccsscccssccccccccccccccscccccccccccccccccccccccscscccccccccccccsscccccccccccccccccccccscsccccsscccccscccccscsscscccscccsscccccccccccscsccccccssscscccccccscccccccccccccsccccsccssccccsccsscccccccccscscsccsscccccccccccccscccccccsccsccccccccssscsssccsscccscccsccccccccccsccsccscccccccccsscccccscsscscs" />
        <path
           style="fill:#3e3e3e;stroke-width:0.12110545"
           d="m 74.739349,69.555346 c -1.752489,0.06504 -10.196419,0.160986 -18.764293,0.213171 -14.659823,0.0893 -15.585372,0.108186 -15.703534,0.320435 -0.223077,0.400724 0.04784,0.671569 0.715965,0.715834 0.700875,0.04639 0.797434,0.212677 0.473241,0.81495 -0.337206,0.626403 -0.326124,1.852041 0.02215,2.445516 0.309349,0.527201 1.119967,1.01895 1.673265,1.015062 0.592312,-0.0043 1.329469,-0.431309 1.594729,-0.92408 0.571284,-1.061215 0.02215,-2.166258 -1.076465,-2.166258 -0.473658,0 -1.117582,0.333322 -1.054945,0.546092 0.08719,0.296255 0.415634,0.426284 0.65288,0.25848 0.543521,-0.384435 1.09755,-0.0029 1.039596,0.715934 -0.0074,0.092 -0.148979,0.309492 -0.314581,0.483308 -0.442923,0.464909 -1.273169,0.446719 -1.752488,-0.03838 -0.440733,-0.44604 -0.563489,-1.214088 -0.289848,-1.813423 0.723418,-1.584356 3.493823,-0.881823 6.534576,1.657076 5.088736,4.248853 9.453222,6.43245 14.278394,7.143603 1.544445,0.227616 4.590367,0.259937 5.999998,0.06368 1.562928,-0.217645 3.479316,-0.704855 5.049083,-1.28367 1.791642,-0.660618 2.569385,-1.035847 5.424088,-2.616893 4.845987,-2.68386 9.913557,-4.72011 10.987317,-4.414906 0.34603,0.09836 0.30298,0.361219 -0.0788,0.480806 -2.83477,0.888077 -5.21322,2.081916 -8.27506,4.153553 -4.284443,2.898875 -7.757314,4.454876 -9.951765,4.458814 -0.297289,0 -0.540531,0.04753 -0.540531,0.104498 0,0.05689 0.371264,0.244556 0.825035,0.416935 0.7235,0.27484 1.021122,0.312423 2.418201,0.305347 2.374022,-0.01201 4.613805,-0.630306 7.459105,-2.059065 0.62552,-0.314095 1.210574,-0.571088 1.300149,-0.571088 0.08958,0 0.390816,0.399102 0.669426,0.886877 1.15737,2.026271 2.48478,3.052598 4.11327,3.180326 l 0.91037,0.07141 -0.39829,-0.356023 c -2.08991,-1.868059 -2.80394,-3.945472 -2.0201,-5.877252 0.56083,-1.382207 1.78243,-2.535304 3.29174,-3.107171 0.80807,-0.306154 2.43572,-0.507138 2.71861,-0.335659 0.48262,0.292523 0.87958,1.443626 0.54181,1.57114 -0.0735,0.0278 -0.39193,-0.02545 -0.7076,-0.118143 -0.69709,-0.204794 -0.81117,-0.206774 -1.55187,-0.02687 -1.15912,0.281544 -1.81239,1.322131 -1.81239,2.886988 0,1.084279 0.23869,1.760645 0.8282,2.34685 0.48339,0.480684 0.97644,0.613322 1.91984,0.516437 1.85302,-0.190305 2.91521,-2.055155 2.60429,-4.572319 -0.12862,-1.041365 -0.10556,-1.319708 0.10937,-1.319708 0.1566,0 0.50937,0.849609 0.79498,1.914527 0.66731,2.488171 -0.19677,4.624237 -2.336,5.774825 -0.46923,0.252361 -0.85313,0.512235 -0.85313,0.577472 0,0.397486 1.21512,0.197945 2.24242,-0.368225 0.35824,-0.197439 0.92518,-0.668295 1.25985,-1.046347 0.33466,-0.378066 0.67631,-0.65791 0.75921,-0.621872 0.0829,0.03602 0.26522,0.556357 0.40516,1.156292 0.31147,1.335341 0.3892,1.50256 0.59177,1.273141 0.10678,-0.120936 0.14447,-0.649403 0.1378,-1.932151 -0.0107,-2.051982 -0.21442,-3.092611 -0.95666,-4.886464 -0.57208,-1.382607 -0.4692,-1.667618 0.27515,-0.762343 1.14822,1.396423 2.1114,4.331665 2.11491,6.445066 5.3e-4,0.575719 0.0444,1.122799 0.0964,1.215732 0.0627,0.111846 0.28326,0.155404 0.652596,0.128879 l 0.557987,-0.04003 0.0766,-1.417703 c 0.12239,-2.264937 0.67503,-4.09312 1.76243,-5.83022 0.90697,-1.448894 1.3134,-1.362758 0.6817,0.144489 -0.52211,1.24578 -0.82746,2.391701 -0.98829,3.708921 -0.11802,0.966552 -0.0812,2.509508 0.0741,3.104533 0.0682,0.261504 0.25729,0.299065 0.32424,0.0644 0.0252,-0.08861 0.17895,-0.668574 0.34148,-1.288823 0.16252,-0.620249 0.35324,-1.127714 0.4238,-1.127714 0.0706,0 0.41735,0.312235 0.77062,0.693868 0.75343,0.813907 1.59124,1.328071 2.46064,1.510092 0.61136,0.127993 1.12631,0.06326 1.02173,-0.128321 -0.029,-0.05325 -0.437,-0.311837 -0.90656,-0.574669 -1.02505,-0.573754 -1.8193,-1.43304 -2.22101,-2.402844 -0.50983,-1.23082 -0.38006,-2.997633 0.34623,-4.713855 0.0871,-0.205787 0.25406,-0.39502 0.37107,-0.420537 0.19855,-0.04331 0.20618,0.01236 0.11444,0.836142 -0.22108,1.985045 0.046,3.102947 0.97698,4.089197 1.14251,1.210328 2.96722,1.156849 3.82176,-0.112004 0.59268,-0.880043 0.79855,-2.294428 0.4654,-3.197444 -0.41219,-1.117288 -1.653,-1.726115 -3.22366,-1.581783 -1.08165,0.09939 -1.11808,0.05661 -0.71467,-0.838931 0.3107,-0.689752 0.61534,-0.804514 1.68741,-0.635637 1.20769,0.190248 1.66839,0.346674 2.53738,0.861517 0.95681,0.566863 1.71668,1.410561 2.17598,2.416038 0.7831,1.714328 0.31317,3.731622 -1.24633,5.350029 -0.41463,0.430301 -0.79768,0.782364 -0.85123,0.782364 -0.0535,0 -0.0973,0.06633 -0.0973,0.147392 0,0.104991 0.23733,0.122531 0.82504,0.06104 1.58519,-0.166025 2.78915,-1.087096 3.90616,-2.98839 0.35106,-0.597549 0.71642,-1.086453 0.81191,-1.086453 0.0955,0 0.62696,0.23119 1.18106,0.513749 2.80406,1.429974 5.17999,2.094853 7.55747,2.114909 1.40852,0.01187 1.68879,-0.02316 2.4182,-0.301922 0.45378,-0.173452 0.82503,-0.361933 0.82503,-0.418865 0,-0.05697 -0.25154,-0.103518 -0.55897,-0.103518 -2.12005,0 -5.7081,-1.601025 -9.74321,-4.347533 -2.99484,-2.038445 -5.6781,-3.434082 -7.76399,-4.038285 -1.02212,-0.296054 -1.10283,-0.346666 -0.92966,-0.582974 0.19576,-0.267171 0.62179,-0.225943 2.08708,0.201935 2.44752,0.714733 6.08164,2.373831 9.71552,4.435498 4.91825,2.790324 8.58845,3.791405 13.38965,3.652135 2.39594,-0.06948 3.7143,-0.278866 5.83456,-0.926533 3.19624,-0.976365 6.86512,-3.031198 9.74147,-5.455936 2.44655,-2.062424 3.93636,-2.991043 5.35529,-3.338017 0.66024,-0.161443 0.90221,-0.169563 1.31126,-0.04396 0.71573,0.219733 1.14845,0.749478 1.14845,1.405937 0,1.018515 -0.4794,1.56257 -1.3769,1.56257 -0.90988,0 -1.47714,-1.022781 -0.83254,-1.501136 0.2474,-0.183586 0.3535,-0.193922 0.66811,-0.06504 0.69644,0.285211 1.04246,-0.186046 0.40901,-0.557043 -0.18466,-0.10815 -0.54824,-0.196631 -0.80796,-0.196631 -0.38531,0 -0.54344,0.08065 -0.85914,0.438192 -0.44827,0.507688 -0.49584,0.946838 -0.17578,1.622717 0.4515,0.953457 1.63152,1.271941 2.66046,0.71805 0.90203,-0.485581 1.21652,-1.960664 0.67067,-3.145875 -0.14191,-0.308134 -0.22485,-0.597798 -0.18432,-0.643693 0.0405,-0.04589 0.36416,-0.112768 0.71917,-0.14862 l 0.6455,-0.06512 V 70.31466 69.863567 l -14.85062,-0.07843 c -8.16784,-0.0431 -17.23184,-0.151065 -20.14224,-0.239838 -4.0476,-0.123461 -5.98716,-0.127121 -8.25034,-0.01558 -4.31575,0.212706 -4.53177,0.23347 -4.67088,0.448921 -0.0673,0.10419 -0.60571,0.343264 -1.19654,0.531289 -3.0865,0.982198 -5.26672,2.325471 -7.20445,4.438779 -1.16344,1.268889 -1.81361,2.24837 -2.39917,3.614402 -0.562107,1.311324 -0.572357,1.33098 -0.723587,1.388075 -0.0745,0.02816 -0.304606,-0.376673 -0.523646,-0.921028 -1.70658,-4.241234 -5.1716,-7.150236 -10.23859,-8.595636 -0.50799,-0.144917 -0.98978,-0.361662 -1.07064,-0.481663 -0.1232,-0.182829 -0.45504,-0.232283 -2.04836,-0.305175 -3.784423,-0.173159 -7.996785,-0.208081 -11.118988,-0.0922 z m 7.51536,1.15437 c 0.04127,0.07561 0.04828,0.167718 0.01558,0.204707 -0.03269,0.03702 -0.741899,0.17461 -1.576122,0.305847 -3.002097,0.472308 -4.378116,0.915274 -7.967054,2.564773 -1.106702,0.508654 -2.196161,0.958639 -2.421001,0.99996 l -0.40881,0.07513 0.07421,-0.715083 c 0.121576,-1.171581 -0.005,-1.591568 -0.717105,-2.378943 -0.356955,-0.394677 -0.588156,-0.746326 -0.531974,-0.809067 0.226941,-0.253448 13.397523,-0.494165 13.532207,-0.247329 z m 43.750601,0.005 c 2.53485,0.08015 4.65476,0.193815 4.7109,0.252632 0.0577,0.06047 -0.17161,0.404027 -0.52751,0.790384 -0.52876,0.574026 -0.64101,0.776318 -0.70101,1.263428 -0.0393,0.318984 -0.0196,0.782579 0.0439,1.030208 0.16821,0.656938 0.14529,0.774144 -0.15139,0.774144 -0.35358,0 -1.14961,-0.32012 -3.1735,-1.276186 -2.80605,-1.325569 -4.81698,-1.953373 -7.48331,-2.336242 -1.20308,-0.172758 -1.6426,-0.318991 -1.53752,-0.511563 0.094,-0.172222 3.09682,-0.16774 8.81947,0.01322 z m -41.033453,0.06476 c 0.25671,0.111553 0.22251,0.404649 -0.059,0.505845 -0.28549,0.102632 -0.50095,-0.100403 -0.40551,-0.382091 0.0737,-0.217673 0.18207,-0.246528 0.46457,-0.123754 z m -36.889631,0.405077 c 0.504784,0.445962 4.714174,3.66402 5.002224,3.824163 0.15341,0.0853 0.266201,0.05932 0.399889,-0.09207 0.172393,-0.195258 0.143765,-0.261688 -0.386137,-0.89624 -0.873502,-1.046032 -1.028924,-1.937627 -0.476402,-2.733135 0.22329,-0.321522 0.258223,-0.328262 1.699094,-0.328262 1.274969,0 1.471109,0.02759 1.471109,0.206995 0,0.113833 -0.124365,0.317783 -0.276361,0.453195 -0.765285,0.681769 -0.999313,2.013813 -0.534925,3.044729 0.326004,0.723739 1.306219,1.682528 2.374506,2.322605 1.202245,0.720337 3.315675,1.496576 4.809464,1.766484 1.544615,0.279093 4.429749,0.295568 5.264904,0.03002 0.327626,-0.104162 1.179791,-0.314845 1.893673,-0.46819 1.705994,-0.366452 3.302995,-0.956738 6.212674,-2.296309 3.631051,-1.671671 4.427437,-2.016036 6.004988,-2.596681 2.114371,-0.778204 3.638241,-1.17579 4.845961,-1.264363 0.97819,-0.07172 1.06109,-0.05954 1.0242,0.150357 -0.0291,0.165467 -0.46342,0.395535 -1.57644,0.835071 -2.25527,0.890586 -3.81278,1.645282 -7.05546,3.418728 -1.596012,0.872874 -3.469362,1.821785 -4.162973,2.108698 -3.451786,1.427737 -7.371469,2.057106 -10.630765,1.706951 -5.290798,-0.568436 -9.753837,-2.691007 -15.192011,-7.225164 -0.500719,-0.417478 -1.307261,-0.998787 -1.792316,-1.291804 -1.197695,-0.723489 -1.186493,-1.000516 0.04127,-1.020079 0.531568,-0.0085 0.705956,0.04932 1.039842,0.344265 z m 3.593973,-0.241625 c 0.110748,0.0795 0.131177,0.278729 0.07578,0.739093 -0.159985,1.329786 -0.19936,1.341451 -1.387499,0.411216 -0.900311,-0.704884 -1.081149,-0.957623 -0.819486,-1.145263 0.202573,-0.145275 1.930188,-0.149378 2.131209,-0.005 z m 13.836224,-0.03459 c 0.304938,0.132531 0.20044,0.420201 -0.246743,0.679302 -0.571019,0.330842 -1.225495,1.068948 -1.534586,1.730704 -0.195876,0.419372 -0.252456,0.757118 -0.252456,1.507111 0,1.091263 0.216571,1.697524 0.922527,2.582514 0.622466,0.78032 0.489436,0.945358 -0.672696,0.834427 -2.259544,-0.215686 -4.184298,-0.819246 -6.022118,-1.888408 -3.293264,-1.915855 -3.122563,-4.476455 0.32911,-4.936861 0.563627,-0.07518 0.615991,-0.05597 1.044967,0.382933 0.485718,0.497003 0.667836,1.053631 0.476883,1.457693 -0.138049,0.292159 -0.684329,0.536651 -1.199071,0.536651 -0.638649,0 -0.834379,0.518009 -0.375623,0.994041 0.816236,0.846971 2.350992,1.155798 3.007279,0.605138 1.154956,-0.969117 1.228216,-2.525232 0.170728,-3.627345 -0.338135,-0.352392 -0.484786,-0.590294 -0.413609,-0.670904 0.158521,-0.179549 4.399613,-0.345974 4.765408,-0.186996 z m 49.454487,0.104355 c 0,0.20638 -0.21372,0.324452 -0.42673,0.235728 -0.2588,-0.107786 -0.1532,-0.418314 0.14224,-0.418314 0.16959,0 0.28449,0.07374 0.28449,0.182586 z m 22.38975,-0.05447 c 1.01796,0 1.39402,0.04303 1.39402,0.157455 0,0.08617 -0.23428,0.426062 -0.52062,0.755303 -0.61971,0.712561 -0.80556,1.389612 -0.60873,2.217485 0.16799,0.706571 0.82489,1.443726 1.39276,1.562891 1.07247,0.225058 2.63844,-0.613237 2.63844,-1.412419 0,-0.367459 -0.0217,-0.382734 -0.65283,-0.459542 -0.66392,-0.08081 -0.92254,-0.230468 -1.11988,-0.648075 -0.14341,-0.303516 0.10086,-0.965958 0.51588,-1.399025 0.27094,-0.282717 0.39754,-0.318341 1.03287,-0.290708 1.54671,0.06726 2.67061,0.914431 2.67061,2.013006 0,0.700052 -0.47115,1.541691 -1.19061,2.12686 -0.77029,0.626489 -2.71224,1.631129 -3.88594,2.010304 -0.9915,0.32032 -3.09916,0.705698 -3.88861,0.711016 -0.57053,0.0036 -0.57292,-0.293631 -0.008,-1.005834 0.60564,-0.763681 0.89493,-1.634275 0.89419,-2.690951 -0.001,-1.281325 -0.42345,-2.081151 -1.49542,-2.8305 -1.04848,-0.732931 -0.90169,-0.977837 0.52757,-0.880222 0.50072,0.03417 1.53769,0.06254 2.30441,0.06297 z m 12.57924,0.03295 c 0.10468,0.08861 0.15287,0.223784 0.10709,0.300371 -0.14243,0.23833 -1.82733,1.471767 -2.01048,1.471767 -0.19415,0 -0.27782,-0.303238 -0.32009,-1.159945 l -0.0286,-0.579972 0.56899,-0.07642 c 0.99835,-0.134075 1.48767,-0.121224 1.6831,0.04417 z m 3.2009,-0.08286 c 0.35935,0.156176 0.16178,0.417771 -0.75882,1.004677 -0.51636,0.329198 -1.42532,1.000988 -2.01992,1.492895 -2.75097,2.275845 -4.66697,3.569828 -6.8666,4.637383 -4.59039,2.227891 -9.30948,2.931181 -13.82408,2.060215 -3.00796,-0.580294 -5.21806,-1.447965 -8.89677,-3.49277 -2.91576,-1.620716 -4.82774,-2.554252 -6.94167,-3.38933 -1.13396,-0.447941 -1.65007,-0.712232 -1.65007,-0.844942 0,-0.157261 0.17041,-0.189347 0.91817,-0.172922 1.80103,0.0396 4.82828,1.084558 10.00643,3.454116 3.74683,1.714564 5.27819,2.293493 7.02479,2.655741 0.70535,0.146283 1.46168,0.330792 1.68074,0.410002 1.06714,0.385886 4.29545,0.329462 6.196,-0.108287 2.64021,-0.608112 5.33717,-2.113444 6.18663,-3.453051 0.75256,-1.186848 0.71794,-2.354719 -0.0996,-3.359224 -0.24642,-0.302759 -0.44803,-0.618169 -0.44803,-0.700917 0,-0.108865 0.41531,-0.140493 1.50351,-0.114462 l 1.50349,0.03595 0.26037,0.437935 c 0.46565,0.783214 0.25249,1.670627 -0.63488,2.643111 -0.38445,0.421295 -0.44011,0.544134 -0.34131,0.753216 0.0722,0.152773 0.1976,0.226272 0.32281,0.18919 0.11262,-0.03338 1.31679,-0.923279 2.67594,-1.977617 1.35915,-1.054317 2.58126,-1.988597 2.7158,-2.076163 0.25604,-0.166632 1.17781,-0.219174 1.48708,-0.08476 z M 82.826868,71.48887 c 0.112551,0.206231 -0.0812,0.310893 -1.544014,0.834099 -0.719701,0.257422 -2.87048,1.179822 -4.779512,2.049759 -5.175211,2.35835 -6.964233,2.985496 -8.898935,3.119507 -1.03608,0.07176 -1.141658,0.05539 -1.724042,-0.267314 -1.329142,-0.736483 -1.878633,-2.520451 -1.159336,-3.763772 0.231496,-0.400124 1.104663,-1.042616 1.650261,-1.214281 0.575265,-0.181006 1.428437,-0.157419 1.870366,0.05175 0.496855,0.235107 0.750914,0.664307 0.750914,1.26856 0,0.693726 -0.460177,0.999359 -1.505662,1.000016 -0.728657,0 -0.769564,0.01673 -0.839787,0.333587 -0.126152,0.569308 0.12379,0.70414 1.328673,0.71672 1.347161,0.01408 2.206745,-0.262725 5.441829,-1.752396 3.078131,-1.417409 4.690665,-1.920308 7.443306,-2.321304 1.505571,-0.219325 1.870649,-0.229517 1.965939,-0.05489 z m 35.302432,-0.0057 c 2.89658,0.36034 4.98037,1.001775 8.2743,2.547033 2.80964,1.318057 3.72455,1.601832 5.11303,1.5859 1.2088,-0.01387 1.34215,-0.08232 1.28913,-0.661698 -0.0266,-0.29123 -0.0842,-0.325324 -0.59846,-0.354601 -1.34333,-0.07648 -1.76387,-0.338475 -1.76387,-1.098868 0,-2.031711 3.60909,-1.748801 4.45032,0.348861 0.38494,0.959884 0.20454,1.924112 -0.51179,2.73541 -0.96719,1.095373 -2.45125,1.207269 -5.0765,0.382762 -1.88852,-0.593124 -2.87635,-0.996871 -6.65719,-2.720899 -1.75249,-0.799125 -3.77524,-1.667125 -4.49502,-1.928899 -1.37449,-0.499869 -1.55321,-0.604003 -1.42859,-0.832355 0.0934,-0.171136 0.0509,-0.171057 1.40464,-0.0029 z m -57.061803,1.206033 c 0.102738,0.177596 0.186813,0.562732 0.186813,0.855848 0,0.434261 -0.07164,0.614102 -0.386911,0.971155 -0.311635,0.352949 -0.475892,0.438199 -0.844174,0.438199 -0.861335,0 -1.097501,-0.344787 -0.482785,-0.704806 0.487973,-0.285797 0.689692,-0.687994 0.689692,-1.375244 0,-0.846643 0.403107,-0.935781 0.837365,-0.185152 z m 78.143173,0.200819 c 0.0547,0.60832 0.11605,0.739193 0.54054,1.153254 0.68861,0.671691 0.60933,0.911129 -0.30173,0.911129 -1.23708,0 -1.70575,-1.777427 -0.70402,-2.669936 0.29055,-0.258887 0.40033,-0.115999 0.46521,0.605553 z M 87.594197,75.07536 c 0.0363,0.06647 -0.2153,0.47804 -0.55914,0.91446 -0.34382,0.436419 -0.76694,1.121447 -0.94025,1.522278 -0.27367,0.632951 -0.31497,0.881338 -0.31402,1.88873 0,0.978359 0.0515,1.297536 0.32297,2.038923 0.17704,0.483437 0.28925,0.915925 0.24939,0.961083 -0.23821,0.269787 -1.50687,-1.314911 -2.11095,-2.636785 -0.46285,-1.012839 -0.37655,-0.990639 -1.462145,-0.376086 -2.575229,1.457857 -6.561145,2.783233 -6.364883,2.116403 0.05232,-0.177754 -0.09761,-0.0859 2.136429,-1.308822 0.970116,-0.531047 2.506387,-1.471038 3.413929,-2.088857 1.66648,-1.134463 5.12986,-3.1523 5.41059,-3.1523 0.0836,0 0.18178,0.05439 0.21808,0.120973 z m 26.405433,0.845542 c 0.81366,0.453488 2.34993,1.412284 3.41394,2.13067 1.06401,0.7184 2.62588,1.680105 3.47083,2.137146 2.09573,1.133562 2.08094,1.124506 2.13408,1.306427 0.19541,0.66901 -3.8878,-0.700066 -6.4814,-2.173169 l -0.8765,-0.497825 -0.40334,0.8683 c -0.47014,1.012117 -1.30105,2.250064 -1.71783,2.559341 -0.48122,0.35711 -0.55354,0.0639 -0.19694,-0.798525 0.2758,-0.666965 0.31577,-0.918876 0.31577,-1.989983 0,-1.122126 -0.0311,-1.297357 -0.36632,-2.062117 -0.20148,-0.45967 -0.59835,-1.12332 -0.88193,-1.474782 -1.00871,-1.250091 -0.64579,-1.251341 1.58964,-0.0057 z m -21.285393,1.149259 c 0.78529,0.371605 0.98474,1.310266 0.51704,2.433393 -0.5367,1.288802 -2.19896,1.633174 -2.85403,0.59128 -0.3414,-0.543005 -0.41277,-1.712163 -0.14005,-2.294129 0.38621,-0.824128 1.55243,-1.168078 2.47704,-0.730544 z m 3.70195,0.860409 c 0.67654,1.584427 1.13666,4.176762 0.74136,4.176762 -0.0626,0 -0.23001,-0.275484 -0.37204,-0.612187 -0.14203,-0.33671 -0.30715,-0.612193 -0.36692,-0.612193 -0.0598,0 -0.19266,0.18849 -0.29529,0.418864 -0.23288,0.52272 -0.72492,1.127716 -0.91717,1.127716 -0.0948,0 -0.0124,-0.313037 0.23801,-0.905046 0.56354,-1.331766 0.61834,-2.444729 0.2141,-4.346903 -0.0449,-0.211456 -0.011,-0.289987 0.12548,-0.289987 0.12155,0 0.34324,0.365587 0.63247,1.042974 z m 7.396433,-0.946309 c -10e-4,0.05318 -0.078,0.582767 -0.17077,1.176906 -0.20941,1.341158 -0.0926,2.338215 0.3984,3.400294 0.39201,0.847986 0.3965,0.868071 0.19405,0.868071 -0.19727,0 -0.68699,-0.60115 -0.92535,-1.135935 -0.22206,-0.498197 -0.40415,-0.482279 -0.55459,0.04853 -0.15463,0.545506 -0.43238,0.881616 -0.55501,0.671619 -0.34774,-0.595454 0.94314,-5.126116 1.46053,-5.126116 0.0852,0 0.1539,0.04346 0.15274,0.09667 z m 4.69992,0.07887 c 0.61007,0.292438 0.80681,0.648346 0.851,1.539448 0.0691,1.393814 -0.3968,2.016993 -1.51077,2.020703 -0.85469,0.0029 -1.30962,-0.326861 -1.61634,-1.171474 -0.44299,-1.219805 -0.28872,-2.006866 0.4663,-2.379021 0.46125,-0.227365 1.34581,-0.232083 1.80981,-0.0096 z M 94.537117,69.933602 c -0.0959,0.175702 0.15221,0.509882 0.37855,0.509882 0.0973,0 0.59032,0.227923 1.09558,0.506502 1.72318,0.950062 2.86304,2.292949 3.39896,4.004375 0.154276,0.492693 0.328186,0.837737 0.422246,0.837737 0.0944,0 0.261437,-0.333872 0.407557,-0.814478 0.32437,-1.066804 0.9633,-2.100121 1.74726,-2.825769 0.60716,-0.561982 2.49847,-1.708367 2.8185,-1.708367 0.20504,0 0.32923,-0.38793 0.16174,-0.505165 -0.0727,-0.05089 -0.40021,-0.04467 -0.72783,0.0138 -0.32761,0.0584 -1.95269,0.141251 -3.6113,0.184015 -2.425063,0.06254 -3.286863,0.03717 -4.400573,-0.129629 -1.63961,-0.245521 -1.59745,-0.243712 -1.69069,-0.07286 z m 7.542183,0.887412 c 0.27179,0.01737 0.13775,0.243798 -0.66481,1.122827 -0.44388,0.486181 -0.93524,1.130453 -1.0919,1.431718 -0.16839,0.323838 -0.369027,0.547744 -0.490797,0.547744 -0.12179,0 -0.32234,-0.223864 -0.490696,-0.547744 -0.29744,-0.572188 -0.88803,-1.317449 -1.54715,-1.952336 -0.61027,-0.587842 -0.37336,-0.661169 2.049456,-0.634423 1.151517,0.01279 2.157667,0.02723 2.235897,0.03216 z m -2.395307,0.863869 c -0.0439,0.04975 -0.0798,0.200741 -0.0798,0.335623 0,0.180614 0.0675,0.234407 0.25605,0.204072 0.167387,-0.02695 0.256047,-0.129836 0.256047,-0.297184 0,-0.255649 -0.281337,-0.413468 -0.432297,-0.242511 z"
           id="path14-9"
           inkscape:connector-curvature="0"
           sodipodi:nodetypes="ccccsccccccsccccccccssccsccccccccccssccsccscccsscccccccsccccccssccccccccccccccccssccssccssccccccccccsscccssccccccccccccccscccccccccccccccccccccccscscccccccccccccsscccccccccccccccccccccscsccccsscccccscccccscsscscccscccsscccccccccccscsccccccssscscccccccscccccccccccccsccccsccssccccsccsscccccccccscscsccsscccccccccccccscccccccsccsccccccccssscsssccsscccscccsccccccccccsccsccscccccccccsscccccscsscscs" />
      </g>
    </g>
  </g>
</svg>
